<mxfile host="app.diagrams.net" modified="2023-02-05T13:50:49.578Z" agent="5.0 (Windows)" etag="O2mfg3-4W2q5aNse8UBl" version="20.8.16" type="github">
  <diagram name="Page-1" id="nYQlEVug3JzQvaDDnfBK">
    <mxGraphModel dx="2333" dy="1178" grid="1" gridSize="10" guides="1" tooltips="1" connect="1" arrows="1" fold="1" page="1" pageScale="1" pageWidth="827" pageHeight="1169" math="0" shadow="0">
      <root>
        <mxCell id="0" />
        <mxCell id="1" parent="0" />
        <mxCell id="EcVuPvzSqFR0_0pbrMmz-1" style="edgeStyle=none;rounded=0;orthogonalLoop=1;jettySize=auto;html=1;exitX=1;exitY=0.3333333333333333;exitDx=0;exitDy=0;exitPerimeter=0;entryX=0.019;entryY=0.588;entryDx=0;entryDy=0;entryPerimeter=0;fontSize=18;endArrow=none;endFill=0;" edge="1" parent="1" source="EcVuPvzSqFR0_0pbrMmz-4" target="EcVuPvzSqFR0_0pbrMmz-7">
          <mxGeometry relative="1" as="geometry" />
        </mxCell>
        <mxCell id="EcVuPvzSqFR0_0pbrMmz-2" style="edgeStyle=none;rounded=0;orthogonalLoop=1;jettySize=auto;html=1;exitX=1;exitY=0.3333333333333333;exitDx=0;exitDy=0;exitPerimeter=0;entryX=0;entryY=0;entryDx=0;entryDy=0;fontSize=18;endArrow=none;endFill=0;" edge="1" parent="1" source="EcVuPvzSqFR0_0pbrMmz-4" target="EcVuPvzSqFR0_0pbrMmz-25">
          <mxGeometry relative="1" as="geometry" />
        </mxCell>
        <mxCell id="EcVuPvzSqFR0_0pbrMmz-3" style="edgeStyle=none;rounded=0;orthogonalLoop=1;jettySize=auto;html=1;exitX=1;exitY=1;exitDx=0;exitDy=0;exitPerimeter=0;entryX=0;entryY=0.5;entryDx=0;entryDy=0;fontSize=14;endArrow=none;endFill=0;" edge="1" parent="1" source="EcVuPvzSqFR0_0pbrMmz-4" target="EcVuPvzSqFR0_0pbrMmz-33">
          <mxGeometry relative="1" as="geometry" />
        </mxCell>
        <mxCell id="EcVuPvzSqFR0_0pbrMmz-4" value="Client" style="html=1;overflow=block;blockSpacing=1;shape=umlActor;labelPosition=center;verticalLabelPosition=bottom;verticalAlign=top;whiteSpace=nowrap;fontSize=16.7;fontColor=#333333;align=center;spacing=0;strokeColor=#5e5e5e;strokeOpacity=100;rounded=1;absoluteArcSize=1;arcSize=9;strokeWidth=2.3;lucidId=Zoit8c.qYpQ7;" vertex="1" parent="1">
          <mxGeometry x="165" y="420" width="60" height="135" as="geometry" />
        </mxCell>
        <mxCell id="EcVuPvzSqFR0_0pbrMmz-5" style="edgeStyle=none;rounded=0;orthogonalLoop=1;jettySize=auto;html=1;exitX=1;exitY=1;exitDx=0;exitDy=0;entryX=0.617;entryY=0.111;entryDx=0;entryDy=0;entryPerimeter=0;dashed=1;fontSize=14;endArrow=classic;endFill=1;" edge="1" parent="1" source="EcVuPvzSqFR0_0pbrMmz-7" target="EcVuPvzSqFR0_0pbrMmz-34">
          <mxGeometry relative="1" as="geometry">
            <Array as="points">
              <mxPoint x="730" y="430" />
              <mxPoint x="1110" y="440" />
            </Array>
          </mxGeometry>
        </mxCell>
        <mxCell id="EcVuPvzSqFR0_0pbrMmz-6" value="&amp;lt;&amp;lt;include&amp;gt;&amp;gt;" style="edgeLabel;html=1;align=center;verticalAlign=middle;resizable=0;points=[];fontSize=14;" vertex="1" connectable="0" parent="EcVuPvzSqFR0_0pbrMmz-5">
          <mxGeometry x="-0.1071" y="5" relative="1" as="geometry">
            <mxPoint as="offset" />
          </mxGeometry>
        </mxCell>
        <mxCell id="EcVuPvzSqFR0_0pbrMmz-7" value="Gerer le profil" style="html=1;overflow=block;blockSpacing=1;whiteSpace=wrap;ellipse;fontSize=13;spacing=3.8;strokeColor=#5e5e5e;strokeOpacity=100;rounded=1;absoluteArcSize=1;arcSize=9;strokeWidth=2.3;lucidId=3sitsereLQRn;" vertex="1" parent="1">
          <mxGeometry x="354.5" y="340" width="120" height="90" as="geometry" />
        </mxCell>
        <mxCell id="EcVuPvzSqFR0_0pbrMmz-8" style="edgeStyle=none;rounded=0;orthogonalLoop=1;jettySize=auto;html=1;exitX=0;exitY=1;exitDx=0;exitDy=0;fontSize=18;endArrow=block;endFill=0;" edge="1" parent="1" source="EcVuPvzSqFR0_0pbrMmz-9" target="EcVuPvzSqFR0_0pbrMmz-7">
          <mxGeometry relative="1" as="geometry" />
        </mxCell>
        <mxCell id="EcVuPvzSqFR0_0pbrMmz-9" value="Desactiver le profil" style="html=1;overflow=block;blockSpacing=1;whiteSpace=wrap;ellipse;fontSize=13;spacing=3.8;strokeColor=#5e5e5e;strokeOpacity=100;rounded=1;absoluteArcSize=1;arcSize=9;strokeWidth=2.3;lucidId=jtitNFk_JNwB;" vertex="1" parent="1">
          <mxGeometry x="521.5" y="260" width="120" height="90" as="geometry" />
        </mxCell>
        <mxCell id="EcVuPvzSqFR0_0pbrMmz-10" style="edgeStyle=none;rounded=0;orthogonalLoop=1;jettySize=auto;html=1;exitX=0;exitY=0.5;exitDx=0;exitDy=0;entryX=0;entryY=1;entryDx=0;entryDy=0;entryPerimeter=0;fontSize=14;endArrow=none;endFill=0;" edge="1" parent="1" source="EcVuPvzSqFR0_0pbrMmz-12" target="EcVuPvzSqFR0_0pbrMmz-4">
          <mxGeometry relative="1" as="geometry">
            <Array as="points">
              <mxPoint x="220" y="1085" />
            </Array>
          </mxGeometry>
        </mxCell>
        <mxCell id="EcVuPvzSqFR0_0pbrMmz-11" value="&amp;lt;&amp;lt;include&amp;gt;&amp;gt;" style="edgeStyle=none;rounded=0;orthogonalLoop=1;jettySize=auto;html=1;exitX=1;exitY=0.5;exitDx=0;exitDy=0;entryX=0;entryY=1;entryDx=0;entryDy=0;fontSize=14;endArrow=classic;endFill=1;dashed=1;" edge="1" parent="1" source="EcVuPvzSqFR0_0pbrMmz-12" target="EcVuPvzSqFR0_0pbrMmz-34">
          <mxGeometry relative="1" as="geometry" />
        </mxCell>
        <mxCell id="EcVuPvzSqFR0_0pbrMmz-12" value="Consulter liste ludification" style="html=1;overflow=block;blockSpacing=1;whiteSpace=wrap;ellipse;fontSize=13;spacing=3.8;strokeColor=#5e5e5e;strokeOpacity=100;rounded=1;absoluteArcSize=1;arcSize=9;strokeWidth=2.3;lucidId=AtitZLWRrcX2;" vertex="1" parent="1">
          <mxGeometry x="354.5" y="1040" width="120" height="90" as="geometry" />
        </mxCell>
        <mxCell id="EcVuPvzSqFR0_0pbrMmz-13" style="edgeStyle=none;rounded=0;orthogonalLoop=1;jettySize=auto;html=1;exitX=0;exitY=0.5;exitDx=0;exitDy=0;entryX=0.995;entryY=0.61;entryDx=0;entryDy=0;fontSize=18;endArrow=block;endFill=0;entryPerimeter=0;" edge="1" parent="1" source="EcVuPvzSqFR0_0pbrMmz-14" target="EcVuPvzSqFR0_0pbrMmz-31">
          <mxGeometry relative="1" as="geometry">
            <mxPoint x="662.56528106106" y="956.7153074572602" as="targetPoint" />
          </mxGeometry>
        </mxCell>
        <mxCell id="EcVuPvzSqFR0_0pbrMmz-14" value="Ajouter u ami &#39;abonner&#39;" style="html=1;overflow=block;blockSpacing=1;whiteSpace=wrap;ellipse;fontSize=13;spacing=3.8;strokeColor=#5e5e5e;strokeOpacity=100;rounded=1;absoluteArcSize=1;arcSize=9;strokeWidth=2.3;lucidId=yuiteOMJiaQA;" vertex="1" parent="1">
          <mxGeometry x="785" y="710" width="120" height="90" as="geometry" />
        </mxCell>
        <mxCell id="EcVuPvzSqFR0_0pbrMmz-15" style="edgeStyle=none;rounded=0;orthogonalLoop=1;jettySize=auto;html=1;exitX=0;exitY=0.5;exitDx=0;exitDy=0;entryX=1;entryY=1;entryDx=0;entryDy=0;fontSize=18;endArrow=block;endFill=0;" edge="1" parent="1" source="EcVuPvzSqFR0_0pbrMmz-16" target="EcVuPvzSqFR0_0pbrMmz-31">
          <mxGeometry relative="1" as="geometry">
            <mxPoint x="648.0799999999999" y="965.2299999999996" as="targetPoint" />
          </mxGeometry>
        </mxCell>
        <mxCell id="EcVuPvzSqFR0_0pbrMmz-16" value="Supprimer un ami" style="html=1;overflow=block;blockSpacing=1;whiteSpace=wrap;ellipse;fontSize=13;spacing=3.8;strokeColor=#5e5e5e;strokeOpacity=100;rounded=1;absoluteArcSize=1;arcSize=9;strokeWidth=2.3;lucidId=Juitxt.MBrJM;" vertex="1" parent="1">
          <mxGeometry x="770" y="800" width="120" height="90" as="geometry" />
        </mxCell>
        <mxCell id="EcVuPvzSqFR0_0pbrMmz-17" value="" style="edgeStyle=none;rounded=0;orthogonalLoop=1;jettySize=auto;html=1;fontSize=18;endArrow=block;endFill=0;entryX=0.958;entryY=0.375;entryDx=0;entryDy=0;entryPerimeter=0;" edge="1" parent="1" source="EcVuPvzSqFR0_0pbrMmz-18" target="EcVuPvzSqFR0_0pbrMmz-31">
          <mxGeometry relative="1" as="geometry">
            <mxPoint x="678.8493050127047" y="916.229190118298" as="targetPoint" />
          </mxGeometry>
        </mxCell>
        <mxCell id="EcVuPvzSqFR0_0pbrMmz-18" value="Consulter la liste des utilisateurs" style="html=1;overflow=block;blockSpacing=1;whiteSpace=wrap;ellipse;fontSize=13;spacing=3.8;strokeColor=#5e5e5e;strokeOpacity=100;rounded=1;absoluteArcSize=1;arcSize=9;strokeWidth=2.3;lucidId=SuitE4AoL12q;" vertex="1" parent="1">
          <mxGeometry x="755" y="625" width="150" height="75" as="geometry" />
        </mxCell>
        <mxCell id="EcVuPvzSqFR0_0pbrMmz-19" style="edgeStyle=none;rounded=0;orthogonalLoop=1;jettySize=auto;html=1;exitX=0.5;exitY=1;exitDx=0;exitDy=0;entryX=0.666;entryY=0.019;entryDx=0;entryDy=0;entryPerimeter=0;fontSize=18;endArrow=block;endFill=0;" edge="1" parent="1" source="EcVuPvzSqFR0_0pbrMmz-20" target="EcVuPvzSqFR0_0pbrMmz-7">
          <mxGeometry relative="1" as="geometry" />
        </mxCell>
        <mxCell id="EcVuPvzSqFR0_0pbrMmz-20" value="Modifier le profil" style="ellipse;whiteSpace=wrap;html=1;" vertex="1" parent="1">
          <mxGeometry x="414" y="210" width="120" height="80" as="geometry" />
        </mxCell>
        <mxCell id="EcVuPvzSqFR0_0pbrMmz-21" style="edgeStyle=none;rounded=0;orthogonalLoop=1;jettySize=auto;html=1;exitX=1;exitY=0.5;exitDx=0;exitDy=0;dashed=1;fontSize=14;endArrow=classic;endFill=1;" edge="1" parent="1" source="EcVuPvzSqFR0_0pbrMmz-23" target="EcVuPvzSqFR0_0pbrMmz-34">
          <mxGeometry relative="1" as="geometry">
            <Array as="points">
              <mxPoint x="990" y="600" />
            </Array>
          </mxGeometry>
        </mxCell>
        <mxCell id="EcVuPvzSqFR0_0pbrMmz-22" value="&amp;lt;&amp;lt;include&amp;gt;&amp;gt;" style="edgeLabel;html=1;align=center;verticalAlign=middle;resizable=0;points=[];fontSize=14;" vertex="1" connectable="0" parent="EcVuPvzSqFR0_0pbrMmz-21">
          <mxGeometry x="-0.3793" y="2" relative="1" as="geometry">
            <mxPoint x="1" as="offset" />
          </mxGeometry>
        </mxCell>
        <mxCell id="EcVuPvzSqFR0_0pbrMmz-23" value="Reserver un evenement" style="ellipse;whiteSpace=wrap;html=1;" vertex="1" parent="1">
          <mxGeometry x="652.5" y="555" width="120" height="80" as="geometry" />
        </mxCell>
        <mxCell id="EcVuPvzSqFR0_0pbrMmz-24" value="&amp;lt;&amp;lt;include&amp;gt;&amp;gt;" style="edgeStyle=none;rounded=0;orthogonalLoop=1;jettySize=auto;html=1;exitX=1;exitY=0.5;exitDx=0;exitDy=0;entryX=0.056;entryY=0.727;entryDx=0;entryDy=0;entryPerimeter=0;dashed=1;fontSize=18;endArrow=open;endFill=0;" edge="1" parent="1" source="EcVuPvzSqFR0_0pbrMmz-25" target="EcVuPvzSqFR0_0pbrMmz-23">
          <mxGeometry relative="1" as="geometry">
            <mxPoint x="445" y="669.9999999999995" as="sourcePoint" />
            <mxPoint x="570.6400000000001" y="592.8800000000001" as="targetPoint" />
          </mxGeometry>
        </mxCell>
        <mxCell id="EcVuPvzSqFR0_0pbrMmz-25" value="Remboursement ticket" style="ellipse;whiteSpace=wrap;html=1;" vertex="1" parent="1">
          <mxGeometry x="401.5" y="475" width="120" height="80" as="geometry" />
        </mxCell>
        <mxCell id="EcVuPvzSqFR0_0pbrMmz-26" value="&lt;font style=&quot;font-size: 14px;&quot;&gt;&amp;lt;&amp;lt;include&amp;gt;&amp;gt;&lt;br&gt;&lt;/font&gt;" style="edgeStyle=none;rounded=0;orthogonalLoop=1;jettySize=auto;html=1;exitX=1;exitY=0.5;exitDx=0;exitDy=0;entryX=0.38;entryY=0.992;entryDx=0;entryDy=0;entryPerimeter=0;dashed=1;fontSize=18;endArrow=open;endFill=0;" edge="1" parent="1" source="EcVuPvzSqFR0_0pbrMmz-28" target="EcVuPvzSqFR0_0pbrMmz-23">
          <mxGeometry x="-0.0373" y="-4" relative="1" as="geometry">
            <mxPoint as="offset" />
          </mxGeometry>
        </mxCell>
        <mxCell id="EcVuPvzSqFR0_0pbrMmz-27" style="edgeStyle=none;rounded=0;orthogonalLoop=1;jettySize=auto;html=1;exitX=0;exitY=0;exitDx=0;exitDy=0;fontSize=14;endArrow=none;endFill=0;" edge="1" parent="1" source="EcVuPvzSqFR0_0pbrMmz-28">
          <mxGeometry relative="1" as="geometry">
            <mxPoint x="230" y="470" as="targetPoint" />
          </mxGeometry>
        </mxCell>
        <mxCell id="EcVuPvzSqFR0_0pbrMmz-28" value="Télécharger code QR" style="ellipse;whiteSpace=wrap;html=1;" vertex="1" parent="1">
          <mxGeometry x="375" y="690" width="120" height="80" as="geometry" />
        </mxCell>
        <mxCell id="EcVuPvzSqFR0_0pbrMmz-29" style="edgeStyle=none;rounded=0;orthogonalLoop=1;jettySize=auto;html=1;exitX=0;exitY=0.5;exitDx=0;exitDy=0;entryX=1;entryY=0.3333333333333333;entryDx=0;entryDy=0;entryPerimeter=0;fontSize=14;endArrow=none;endFill=0;" edge="1" parent="1" source="EcVuPvzSqFR0_0pbrMmz-31" target="EcVuPvzSqFR0_0pbrMmz-4">
          <mxGeometry relative="1" as="geometry" />
        </mxCell>
        <mxCell id="EcVuPvzSqFR0_0pbrMmz-30" value="&amp;lt;&amp;lt;include&amp;gt;&amp;gt;" style="edgeStyle=none;rounded=0;orthogonalLoop=1;jettySize=auto;html=1;exitX=0.5;exitY=1;exitDx=0;exitDy=0;dashed=1;fontSize=14;endArrow=classic;endFill=1;" edge="1" parent="1" source="EcVuPvzSqFR0_0pbrMmz-31" target="EcVuPvzSqFR0_0pbrMmz-34">
          <mxGeometry relative="1" as="geometry" />
        </mxCell>
        <mxCell id="EcVuPvzSqFR0_0pbrMmz-31" value="Chercher des utilisateur" style="ellipse;whiteSpace=wrap;html=1;" vertex="1" parent="1">
          <mxGeometry x="375" y="810" width="120" height="80" as="geometry" />
        </mxCell>
        <mxCell id="EcVuPvzSqFR0_0pbrMmz-32" value="&amp;lt;&amp;lt;include&amp;gt;&amp;gt;" style="edgeStyle=none;rounded=0;orthogonalLoop=1;jettySize=auto;html=1;exitX=1;exitY=0.5;exitDx=0;exitDy=0;dashed=1;fontSize=14;endArrow=classic;endFill=1;entryX=0.01;entryY=0.648;entryDx=0;entryDy=0;entryPerimeter=0;" edge="1" parent="1" source="EcVuPvzSqFR0_0pbrMmz-33" target="EcVuPvzSqFR0_0pbrMmz-34">
          <mxGeometry relative="1" as="geometry">
            <mxPoint x="1000" y="975.2352941176473" as="targetPoint" />
          </mxGeometry>
        </mxCell>
        <mxCell id="EcVuPvzSqFR0_0pbrMmz-33" value="discuter avec l&#39;oganizateur pour feedback / réclamation" style="ellipse;whiteSpace=wrap;html=1;" vertex="1" parent="1">
          <mxGeometry x="335" y="920" width="150" height="110" as="geometry" />
        </mxCell>
        <mxCell id="EcVuPvzSqFR0_0pbrMmz-34" value="S&#39;authentifier" style="html=1;overflow=block;blockSpacing=1;whiteSpace=wrap;ellipse;fontSize=13;spacing=3.8;strokeColor=#5e5e5e;strokeOpacity=100;rounded=1;absoluteArcSize=1;arcSize=9;strokeWidth=2.3;lucidId=XvitAHHM73nt;" vertex="1" parent="1">
          <mxGeometry x="1036" y="900" width="120" height="90" as="geometry" />
        </mxCell>
        <mxCell id="EcVuPvzSqFR0_0pbrMmz-35" value="&amp;lt;&amp;lt;extend&amp;gt;&amp;gt;" style="edgeStyle=none;rounded=0;orthogonalLoop=1;jettySize=auto;html=1;exitX=0.5;exitY=1;exitDx=0;exitDy=0;entryX=1;entryY=0;entryDx=0;entryDy=0;fontSize=14;endArrow=classic;endFill=1;dashed=1;" edge="1" parent="1" source="EcVuPvzSqFR0_0pbrMmz-36" target="EcVuPvzSqFR0_0pbrMmz-34">
          <mxGeometry relative="1" as="geometry" />
        </mxCell>
        <mxCell id="EcVuPvzSqFR0_0pbrMmz-36" value="Deconnecter" style="html=1;overflow=block;blockSpacing=1;whiteSpace=wrap;ellipse;fontSize=13;spacing=3.8;strokeColor=#5e5e5e;strokeOpacity=100;rounded=1;absoluteArcSize=1;arcSize=9;strokeWidth=2.3;lucidId=XvitmW9DInrr;" vertex="1" parent="1">
          <mxGeometry x="1155" y="770" width="120" height="90" as="geometry" />
        </mxCell>
        <mxCell id="EcVuPvzSqFR0_0pbrMmz-37" style="edgeStyle=none;rounded=0;orthogonalLoop=1;jettySize=auto;html=1;exitX=0;exitY=0.5;exitDx=0;exitDy=0;entryX=1;entryY=0.5;entryDx=0;entryDy=0;fontSize=18;endArrow=block;endFill=0;" edge="1" parent="1" source="EcVuPvzSqFR0_0pbrMmz-38" target="EcVuPvzSqFR0_0pbrMmz-7">
          <mxGeometry relative="1" as="geometry" />
        </mxCell>
        <mxCell id="EcVuPvzSqFR0_0pbrMmz-38" value="Supprimer le profil" style="html=1;overflow=block;blockSpacing=1;whiteSpace=wrap;ellipse;fontSize=13;spacing=3.8;strokeColor=#5e5e5e;strokeOpacity=100;rounded=1;absoluteArcSize=1;arcSize=9;strokeWidth=2.3;lucidId=jtitNFk_JNwB;" vertex="1" parent="1">
          <mxGeometry x="635.5" y="320" width="120" height="90" as="geometry" />
        </mxCell>
      </root>
    </mxGraphModel>
  </diagram>
</mxfile>
